Coordinates
version=1
nRows=4
nColumns=63
inDegrees=yes

Units are S.I. units (second, meters, Newtons, ...)
If the header above contains a line with 'inDegrees', this indicates whether rotational values are in degrees (yes) or radians (no).

endheader
time	pelvis_tilt	pelvis_list	pelvis_rotation	pelvis_tx	pelvis_ty	pelvis_tz	hip_flexion_r	hip_adduction_r	hip_rotation_r	knee_angle_r	knee_angle_r_beta	ankle_angle_r	subtalar_angle_r	mtp_angle_r	hip_flexion_l	hip_adduction_l	hip_rotation_l	knee_angle_l	knee_angle_l_beta	ankle_angle_l	subtalar_angle_l	mtp_angle_l	L5_S1_Flex_Ext	L5_S1_Lat_Bending	L5_S1_axial_rotation	L4_L5_Flex_Ext	L4_L5_Lat_Bending	L4_L5_axial_rotation	L3_L4_Flex_Ext	L3_L4_Lat_Bending	L3_L4_axial_rotation	L2_L3_Flex_Ext	L2_L3_Lat_Bending	L2_L3_axial_rotation	L1_L2_Flex_Ext	L1_L2_Lat_Bending	L1_L2_axial_rotation	L1_T12_Flex_Ext	L1_T12_Lat_Bending	L1_T12_axial_rotation	Abs_r3	Abs_r2	Abs_r1	Abs_t1	Abs_t2	neck_flexion	neck_bending	neck_rotation	arm_flex_r	arm_add_r	arm_rot_r	elbow_flex_r	pro_sup_r	wrist_flex_r	wrist_dev_r	arm_flex_l	arm_add_l	arm_rot_l	elbow_flex_l	pro_sup_l	wrist_flex_l	wrist_dev_l
      2.15686275	    -13.15590368	    -26.31112351	     68.58808155	      0.21397780	      0.96158621	      0.25521210	     41.23946929	     -4.07569440	      9.41899300	     42.93853123	      0.74941875	     38.83532822	     -4.94322957	      0.00000000	     27.29087651	     -1.62250587	    -24.72664542	     28.91356008	      0.50463682	     36.42078294	      0.05296034	      0.00000000	     -0.23068718	      1.24936129	     -0.68775195	     -0.42840916	      1.66165052	     -0.73073644	     -0.37899596	      3.03769704	     -0.73073644	     -0.26365238	      3.03769704	     -0.60178295	     -0.21421611	      2.54769754	     -0.55879846	     -0.13181465	      1.93526064	     -0.51581396	     -1.64777544	     14.13302479	     -3.82507000	      0.00000000	      0.00000000	      7.13781163	     -3.79798235	    -16.98254874	     51.88814499	    -32.18532114	     12.88370829	    143.03087576	     88.09426360	    -18.83315146	     18.73249569	     49.91677928	     -0.45237850	     13.60025163	    130.43454662	     89.15434567	     -9.17720038	      4.68851031
      2.17647059	    -12.89242195	    -26.50364298	     69.13678235	      0.21306348	      0.96122960	      0.25476982	     41.16694573	     -4.19585429	      8.80908669	     42.91944291	      0.74908559	     38.76613224	     -4.90523407	      0.00000000	     27.43760876	     -1.60707094	    -23.96066777	     28.97980580	      0.50579303	     36.23240941	     -0.43006197	      0.00000000	     -0.23515817	      1.29267555	     -0.64764203	     -0.43671223	      1.71925849	     -0.68811966	     -0.38634135	      3.14301134	     -0.68811966	     -0.26876227	      3.14301134	     -0.56668678	     -0.21836787	      2.63602399	     -0.52620915	     -0.13436938	      2.00235443	     -0.48573152	     -1.67971127	     14.62300441	     -3.60199068	      0.00000000	      0.00000000	      7.94373168	     -2.85808494	    -17.20448983	     51.40747335	    -32.62453860	     12.95136513	    143.10089126	     88.04778536	    -18.87927101	     18.80187880	     50.00440068	      0.10883218	     13.87690979	    130.19237587	     89.09346357	     -9.32049875	      5.63485774
      2.19607843	    -12.80677858	    -26.67119231	     69.45186968	      0.21227057	      0.96082019	      0.25435523	     41.17164381	     -4.35064021	      8.40016523	     42.94249165	      0.74948787	     38.66856757	     -4.85316761	      0.00000000	     27.55538090	     -1.54062485	    -23.58631526	     28.95316602	      0.50532808	     36.19043749	     -0.52526058	      0.00000000	     -0.23202044	      1.32651056	     -0.60136814	     -0.43088517	      1.76425904	     -0.63895365	     -0.38118639	      3.22527777	     -0.63895365	     -0.26517617	      3.22527777	     -0.52619712	     -0.21545418	      2.70502033	     -0.48861162	     -0.13257648	      2.05476485	     -0.45102611	     -1.65729883	     15.00575273	     -3.34462920	      0.00000000	      0.00000000	      8.80011838	     -2.10101995	    -17.18703558	     51.15709122	    -32.98419668	     13.37588145	    142.92444461	     88.01029303	    -18.89586953	     18.78641060	     50.04394869	      0.59784315	     13.92196941	    129.94438738	     89.00635049	     -9.49535991	      6.21166510
      2.21568627	    -12.53450243	    -26.78722549	     69.92809457	      0.21133282	      0.96048586	      0.25377553	     40.99969865	     -4.51132555	      7.65765276	     42.90398214	      0.74881575	     38.61893423	     -4.65541798	      0.00000000	     27.67529346	     -1.58029163	    -22.96291197	     29.10923748	      0.50805204	     36.30334354	     -0.69965967	      0.00000000	     -0.23769160	      1.37860480	     -0.58012865	     -0.44141708	      1.83354438	     -0.61638669	     -0.39050354	      3.35193970	     -0.61638669	     -0.27165773	      3.35193970	     -0.50761257	     -0.22072042	      2.81125090	     -0.47135453	     -0.13581698	      2.13545883	     -0.43509649	     -1.69780736	     15.59505317	     -3.22650150	      0.00000000	      0.00000000	      9.65756018	     -1.27875240	    -17.00057078	     51.12726904	    -33.44728221	     13.82609705	    142.63638400	     87.91001195	    -19.17483317	     18.59551090	     50.21474202	      1.03401390	     13.95478350	    129.81000312	     88.91423401	     -9.94483852	      7.39014083
